<svg height="128pt" preserveAspectRatio="xMidYMid meet" viewBox="0 0 128 128" width="128pt" xmlns="http://www.w3.org/2000/svg"><path fill="gray" d="m318 977c-115-40-206-115-269-221-30-51-16-64 45-43l46 16v-62c1-84 14-135 43-164 20-20 42-26 138-39 161-20 245-39 399-91 98-33 152-46 198-47 62-1 65 0 95 37 27 31 38 37 71 37 46 0 158 22 153 30-1 3-26 53-56 112-107 215-253 343-484 425-58 20-96 26-192 30-107 3-128 1-187-20zm114-22c-52-24-91-53-134-96-48-49-56-55-43-29 44 85 145 160 215 160 33-1 30-3-38-35zm236 4c9-1-12-7-48-15-88-19-165-59-217-110-48-48-56-46-18 6 33 45 106 95 157 108 67 17 82 20 96 16 8-2 21-4 30-5zm-445-72c-27-29-55-63-62-76-7-12-15-20-18-17-10 9 46 94 79 120 54 42 54 29 1-27zm610 1c14-11 3-13-65-13-96 0-155-19-224-71-33-25-42-29-34-15 14 27 65 65 120 90 52 24 175 29 203 9zm152-108 20-21-25 9c-83 30-221 17-311-29-32-16-40-17-31-6 16 19 91 57 136 68 17 5 67 6 111 4 63-4 83-9 100-25zm-575-56c89-21 231-90 315-154 99-75 165-117 227-141 29-11 55-23 57-25 3-2-6-15-19-29-34-37-100-34-225 10-140 50-270 81-410 100-151 20-152 21-170 55-19 37-21 186-2 193 27 11 166 6 227-9zm611-40c52-15 89-38 89-55 0-4-21 1-46 12-83 37-166 41-289 14-27-6-28-5-10 6 62 39 169 49 256 23zm67-135c34-11 69-30 77-42 8-11 13-22 12-24-2-1-35 11-75 27-39 17-110 36-159 44l-88 14 86 1c62 1 102-5 147-20z" transform="matrix(.1 0 0 -.1 0 128)"/></svg>
